<svg width="84" height="17" viewBox="0 0 84 17" fill="none" xmlns="http://www.w3.org/2000/svg">
<path d="M4.32 12.15C3.33 12.15 2.495 11.965 1.815 11.595C1.135 11.215 0.545 10.745 0.045 10.185L1.905 8.715C2.185 9.195 2.53 9.565 2.94 9.825C3.35 10.075 3.805 10.2 4.305 10.2C4.845 10.2 5.255 10.05 5.535 9.75C5.825 9.45 5.97 9.11 5.97 8.73C5.97 8.5 5.905 8.305 5.775 8.145C5.645 7.985 5.475 7.85 5.265 7.74C5.055 7.62 4.81 7.515 4.53 7.425C4.26 7.335 3.98 7.245 3.69 7.155C3.32 7.035 2.95 6.905 2.58 6.765C2.21 6.625 1.875 6.44 1.575 6.21C1.285 5.97 1.045 5.68 0.855 5.34C0.675 4.99 0.585 4.555 0.585 4.035C0.585 3.595 0.675 3.185 0.855 2.805C1.035 2.425 1.285 2.095 1.605 1.815C1.935 1.525 2.32 1.3 2.76 1.14C3.21 0.98 3.695 0.9 4.215 0.9C4.655 0.9 5.05 0.94 5.4 1.02C5.76 1.1 6.085 1.21 6.375 1.35C6.675 1.49 6.945 1.66 7.185 1.86C7.435 2.05 7.67 2.26 7.89 2.49L6.21 3.765C5.74 3.065 5.08 2.715 4.23 2.715C3.73 2.715 3.35 2.835 3.09 3.075C2.83 3.315 2.7 3.61 2.7 3.96C2.7 4.18 2.76 4.365 2.88 4.515C3 4.665 3.16 4.8 3.36 4.92C3.57 5.03 3.81 5.13 4.08 5.22C4.35 5.31 4.635 5.405 4.935 5.505C5.305 5.625 5.675 5.765 6.045 5.925C6.425 6.075 6.765 6.275 7.065 6.525C7.375 6.765 7.625 7.065 7.815 7.425C8.005 7.775 8.1 8.215 8.1 8.745C8.1 9.175 8.015 9.595 7.845 10.005C7.675 10.415 7.43 10.78 7.11 11.1C6.79 11.41 6.395 11.665 5.925 11.865C5.455 12.055 4.92 12.15 4.32 12.15ZM9.03715 0.9H11.0621V4.275C11.3621 3.895 11.7321 3.595 12.1721 3.375C12.6221 3.155 13.1271 3.045 13.6871 3.045C14.7771 3.045 15.6271 3.375 16.2371 4.035C16.8571 4.695 17.1671 5.615 17.1671 6.795V12H15.0971V7.02C15.0971 6.33 14.9321 5.79 14.6021 5.4C14.2721 5 13.7771 4.8 13.1171 4.8C12.8371 4.8 12.5721 4.855 12.3221 4.965C12.0721 5.065 11.8521 5.215 11.6621 5.415C11.4821 5.615 11.3371 5.865 11.2271 6.165C11.1271 6.465 11.0771 6.805 11.0771 7.185V12H9.03715V0.9ZM22.5843 12.18C21.9543 12.18 21.3593 12.065 20.7993 11.835C20.2493 11.595 19.7693 11.27 19.3593 10.86C18.9493 10.44 18.6243 9.955 18.3843 9.405C18.1543 8.845 18.0393 8.25 18.0393 7.62C18.0393 6.98 18.1543 6.385 18.3843 5.835C18.6243 5.275 18.9493 4.79 19.3593 4.38C19.7693 3.96 20.2493 3.635 20.7993 3.405C21.3593 3.165 21.9543 3.045 22.5843 3.045C23.2143 3.045 23.8043 3.165 24.3543 3.405C24.9043 3.635 25.3843 3.96 25.7943 4.38C26.2143 4.79 26.5393 5.275 26.7693 5.835C27.0093 6.385 27.1293 6.98 27.1293 7.62C27.1293 8.25 27.0093 8.845 26.7693 9.405C26.5393 9.955 26.2143 10.44 25.7943 10.86C25.3843 11.27 24.9043 11.595 24.3543 11.835C23.8043 12.065 23.2143 12.18 22.5843 12.18ZM22.5843 10.275C22.9443 10.275 23.2793 10.205 23.5893 10.065C23.8993 9.925 24.1693 9.735 24.3993 9.495C24.6293 9.255 24.8093 8.975 24.9393 8.655C25.0693 8.325 25.1343 7.98 25.1343 7.62C25.1343 7.25 25.0693 6.905 24.9393 6.585C24.8093 6.255 24.6293 5.97 24.3993 5.73C24.1693 5.49 23.8993 5.3 23.5893 5.16C23.2793 5.02 22.9443 4.95 22.5843 4.95C22.2243 4.95 21.8843 5.02 21.5643 5.16C21.2543 5.3 20.9843 5.49 20.7543 5.73C20.5343 5.97 20.3593 6.255 20.2293 6.585C20.0993 6.905 20.0343 7.25 20.0343 7.62C20.0343 7.98 20.0993 8.325 20.2293 8.655C20.3593 8.975 20.5343 9.255 20.7543 9.495C20.9843 9.735 21.2543 9.925 21.5643 10.065C21.8843 10.205 22.2243 10.275 22.5843 10.275ZM32.8965 12.18C32.2965 12.18 31.7465 12.075 31.2465 11.865C30.7465 11.655 30.3415 11.355 30.0315 10.965V16.035H28.0215V3.225H30.0315V4.395C30.3415 3.985 30.7415 3.66 31.2315 3.42C31.7315 3.17 32.2815 3.045 32.8815 3.045C33.4315 3.045 33.9665 3.15 34.4865 3.36C35.0065 3.56 35.4665 3.855 35.8665 4.245C36.2665 4.635 36.5865 5.115 36.8265 5.685C37.0765 6.245 37.2015 6.89 37.2015 7.62C37.2015 8.34 37.0765 8.985 36.8265 9.555C36.5765 10.115 36.2465 10.59 35.8365 10.98C35.4365 11.37 34.9765 11.67 34.4565 11.88C33.9465 12.08 33.4265 12.18 32.8965 12.18ZM32.5665 10.32C32.9365 10.32 33.2815 10.25 33.6015 10.11C33.9215 9.97 34.2015 9.78 34.4415 9.54C34.6815 9.29 34.8665 9 34.9965 8.67C35.1365 8.33 35.2065 7.97 35.2065 7.59C35.2065 7.21 35.1365 6.855 34.9965 6.525C34.8665 6.195 34.6815 5.91 34.4415 5.67C34.2015 5.43 33.9215 5.24 33.6015 5.1C33.2815 4.96 32.9365 4.89 32.5665 4.89C32.1865 4.89 31.8365 4.96 31.5165 5.1C31.1965 5.24 30.9215 5.435 30.6915 5.685C30.4615 5.925 30.2815 6.21 30.1515 6.54C30.0215 6.87 29.9565 7.22 29.9565 7.59C29.9565 7.97 30.0215 8.325 30.1515 8.655C30.2815 8.985 30.4615 9.275 30.6915 9.525C30.9215 9.775 31.1965 9.97 31.5165 10.11C31.8365 10.25 32.1865 10.32 32.5665 10.32ZM41.7628 1.05H47.9578V3H43.8028V5.52H47.9578V7.47H43.8028V12H41.7628V1.05ZM53.2727 12.18C52.6427 12.18 52.0477 12.065 51.4877 11.835C50.9377 11.595 50.4577 11.27 50.0477 10.86C49.6377 10.44 49.3127 9.955 49.0727 9.405C48.8427 8.845 48.7277 8.25 48.7277 7.62C48.7277 6.98 48.8427 6.385 49.0727 5.835C49.3127 5.275 49.6377 4.79 50.0477 4.38C50.4577 3.96 50.9377 3.635 51.4877 3.405C52.0477 3.165 52.6427 3.045 53.2727 3.045C53.9027 3.045 54.4927 3.165 55.0427 3.405C55.5927 3.635 56.0727 3.96 56.4827 4.38C56.9027 4.79 57.2277 5.275 57.4577 5.835C57.6977 6.385 57.8177 6.98 57.8177 7.62C57.8177 8.25 57.6977 8.845 57.4577 9.405C57.2277 9.955 56.9027 10.44 56.4827 10.86C56.0727 11.27 55.5927 11.595 55.0427 11.835C54.4927 12.065 53.9027 12.18 53.2727 12.18ZM53.2727 10.275C53.6327 10.275 53.9677 10.205 54.2777 10.065C54.5877 9.925 54.8577 9.735 55.0877 9.495C55.3177 9.255 55.4977 8.975 55.6277 8.655C55.7577 8.325 55.8227 7.98 55.8227 7.62C55.8227 7.25 55.7577 6.905 55.6277 6.585C55.4977 6.255 55.3177 5.97 55.0877 5.73C54.8577 5.49 54.5877 5.3 54.2777 5.16C53.9677 5.02 53.6327 4.95 53.2727 4.95C52.9127 4.95 52.5727 5.02 52.2527 5.16C51.9427 5.3 51.6727 5.49 51.4427 5.73C51.2227 5.97 51.0477 6.255 50.9177 6.585C50.7877 6.905 50.7227 7.25 50.7227 7.62C50.7227 7.98 50.7877 8.325 50.9177 8.655C51.0477 8.975 51.2227 9.255 51.4427 9.495C51.6727 9.735 51.9427 9.925 52.2527 10.065C52.5727 10.205 52.9127 10.275 53.2727 10.275ZM58.71 3.225H60.72V4.53C61.13 3.66 61.88 3.225 62.97 3.225C63.29 3.225 63.575 3.26 63.825 3.33C64.085 3.4 64.315 3.49 64.515 3.6L63.75 5.52C63.6 5.42 63.43 5.34 63.24 5.28C63.06 5.21 62.825 5.175 62.535 5.175C61.945 5.175 61.495 5.345 61.185 5.685C60.885 6.015 60.735 6.56 60.735 7.32V12H58.71V3.225ZM71.777 10.83C71.457 11.25 71.047 11.58 70.547 11.82C70.047 12.06 69.502 12.18 68.912 12.18C68.382 12.18 67.857 12.08 67.337 11.88C66.827 11.67 66.367 11.37 65.957 10.98C65.547 10.59 65.217 10.115 64.967 9.555C64.717 8.985 64.592 8.34 64.592 7.62C64.592 6.89 64.712 6.245 64.952 5.685C65.202 5.115 65.527 4.635 65.927 4.245C66.337 3.855 66.802 3.56 67.322 3.36C67.852 3.15 68.392 3.045 68.942 3.045C69.522 3.045 70.057 3.165 70.547 3.405C71.037 3.635 71.442 3.95 71.762 4.35V3.225H73.787V11.775C73.787 12.395 73.687 12.975 73.487 13.515C73.297 14.055 73.012 14.525 72.632 14.925C72.252 15.335 71.777 15.655 71.207 15.885C70.647 16.125 69.997 16.245 69.257 16.245C68.687 16.245 68.167 16.18 67.697 16.05C67.237 15.93 66.822 15.755 66.452 15.525C66.082 15.305 65.757 15.04 65.477 14.73C65.197 14.43 64.957 14.095 64.757 13.725L66.557 12.63C66.877 13.22 67.237 13.66 67.637 13.95C68.037 14.24 68.587 14.385 69.287 14.385C69.667 14.385 70.012 14.315 70.322 14.175C70.632 14.035 70.892 13.85 71.102 13.62C71.322 13.39 71.487 13.12 71.597 12.81C71.717 12.5 71.777 12.18 71.777 11.85V10.83ZM69.242 10.32C69.622 10.32 69.972 10.25 70.292 10.11C70.612 9.97 70.887 9.775 71.117 9.525C71.347 9.275 71.527 8.985 71.657 8.655C71.797 8.325 71.867 7.97 71.867 7.59C71.867 7.22 71.797 6.87 71.657 6.54C71.527 6.21 71.347 5.925 71.117 5.685C70.887 5.435 70.612 5.24 70.292 5.1C69.972 4.96 69.622 4.89 69.242 4.89C68.872 4.89 68.522 4.96 68.192 5.1C67.872 5.24 67.592 5.43 67.352 5.67C67.112 5.91 66.922 6.195 66.782 6.525C66.652 6.855 66.587 7.21 66.587 7.59C66.587 7.97 66.652 8.33 66.782 8.67C66.922 9 67.112 9.29 67.352 9.54C67.592 9.78 67.872 9.97 68.192 10.11C68.522 10.25 68.872 10.32 69.242 10.32ZM79.3198 12.18C78.6298 12.18 77.9998 12.065 77.4298 11.835C76.8598 11.595 76.3698 11.27 75.9598 10.86C75.5598 10.45 75.2448 9.97 75.0148 9.42C74.7948 8.86 74.6848 8.265 74.6848 7.635C74.6848 6.995 74.7998 6.395 75.0298 5.835C75.2698 5.275 75.5948 4.79 76.0048 4.38C76.4148 3.97 76.8948 3.645 77.4448 3.405C78.0048 3.165 78.6048 3.045 79.2448 3.045C79.8948 3.045 80.4948 3.16 81.0448 3.39C81.6048 3.61 82.0848 3.925 82.4848 4.335C82.8848 4.735 83.1948 5.21 83.4148 5.76C83.6448 6.31 83.7598 6.91 83.7598 7.56V8.325H76.6198C76.7598 8.945 77.0648 9.445 77.5348 9.825C78.0048 10.205 78.5998 10.395 79.3198 10.395C79.8898 10.395 80.3848 10.255 80.8048 9.975C81.2248 9.695 81.5398 9.32 81.7498 8.85L83.4148 9.81C83.0348 10.52 82.4998 11.095 81.8098 11.535C81.1298 11.965 80.2998 12.18 79.3198 12.18ZM79.2448 4.83C78.6348 4.83 78.1048 4.995 77.6548 5.325C77.2148 5.655 76.9048 6.09 76.7248 6.63H81.7048C81.5548 6.04 81.2648 5.595 80.8348 5.295C80.4048 4.985 79.8748 4.83 79.2448 4.83Z" fill="black"/>
</svg>
