<svg width="22" height="22" viewBox="0 0 22 22" fill="none" xmlns="http://www.w3.org/2000/svg">
<path d="M5.27087 11.7943L7.645 15.046C8.38911 16.0652 9.91644 16.0454 10.6339 15.0072L16.7292 6.1875" stroke="#D1D1D1" stroke-width="1.5" stroke-linecap="round" stroke-linejoin="round"/>
<path d="M2 1.5H20V-1.5H2V1.5ZM20.5 2V20H23.5V2H20.5ZM20 20.5H2V23.5H20V20.5ZM1.5 20V2H-1.5V20H1.5ZM2 20.5C1.72386 20.5 1.5 20.2761 1.5 20H-1.5C-1.5 21.933 0.0670022 23.5 2 23.5V20.5ZM20.5 20C20.5 20.2761 20.2761 20.5 20 20.5V23.5C21.933 23.5 23.5 21.933 23.5 20H20.5ZM20 1.5C20.2761 1.5 20.5 1.72386 20.5 2H23.5C23.5 0.0670041 21.933 -1.5 20 -1.5V1.5ZM2 -1.5C0.0670041 -1.5 -1.5 0.0670022 -1.5 2H1.5C1.5 1.72386 1.72386 1.5 2 1.5V-1.5Z" fill="#2D2C2C"/>
</svg>
